<?xml version="1.0" encoding="utf-8"?>
<svg viewBox="11.199 9.496 201.045 82.232" xmlns="http://www.w3.org/2000/svg">
  <g transform="matrix(1.011272, 0, 0, 0.997514, 9.119032, 8.39483)" style="">
    <title>Layer 1</title>
    <g stroke="null" id="svg_21">
      <g stroke="null" transform="matrix(0.980465, 0, 0, 0.93961, -4777.787598, -1946.816772)" id="svg_18">
        <title stroke="null" transform="translate(1.0199238061904907,1.0642714500427246) translate(4882.69921875,0) translate(0,2075.147216796875) ">background</title>
        <rect stroke="null" x="4882.71914" y="2075.21149" width="202" height="87" id="svg_16" style="fill: rgba(255, 255, 255, 0); paint-order: fill;"/>
        <g stroke="null" id="svg_15" display="none">
          <rect stroke="null" id="svg_19" width="200" height="85" x="4883.71914" y="2076.21149" stroke-width="0" style="fill: rgba(255, 255, 255, 0); paint-order: fill;"/>
        </g>
      </g>
      <g stroke="null" transform="matrix(0.993903, 0, 0, 0.977338, -4851.437012, -2027.84668)" id="svg_20" style="">
        <title stroke="null" transform="translate(1.0199238061904907,1.0642714500427246) translate(4882.69921875,0) translate(0,2075.147216796875) ">Layer 1</title>
        <g stroke="null" id="svg_10">
          <g stroke="null" id="svg_11" transform="matrix(1.0047556192449865,0,0,0.9856796237546799,-4906.895310886303,-2045.3211859570297) ">
            <title stroke="null" transform="translate(1.0150964260101318,1.0797336101531982) translate(4859.5888671875,0) translate(-9.094947017729282e-13,2105.2958984375) ">Layer 1</title>
            <g stroke="null" transform="rotate(-180 9843.3037109375,4224.022460937499) " id="svg_12">
              <g stroke="null" id="svg_13" fill="#000000" transform="matrix(0.07877138701672196,0,0,0.08570984479349285,-3498.4686265735395,2243.1771592214445) ">
                <path stroke="null" id="svg_14" d="m168527.32212,23572.7905c-17,-24 -21,-44 -21,-110c0,-45 4,-81 9,-81c6,0 9,-12 8,-27c-2,-21 3,-28 23,-33c38,-9 54,-53 58,-167l4,-101l-98,-66c-55,-36 -104,-66 -110,-66c-6,0 -19,9 -29,20c-10,11 -22,20 -28,20c-5,0 -58,-41 -118,-91c-93,-77 -109,-95 -109,-120l0,-29l138,0c86,0 142,4 149,11c8,8 14,1 23,-25c17,-53 62,-86 117,-86c79,0 133,53 133,129c0,17 5,31 10,31c6,0 10,-17 10,-37c0,-43 27,-90 62,-109c41,-23 113,-17 147,12c32,26 56,90 45,118c-5,14 4,16 70,16l76,0l15,-37c44,-104 159,-150 260,-104c48,21 94,72 102,112c5,27 9,29 48,29c40,0 44,-2 55,-34c24,-72 105,-126 190,-126c75,1 158,63 175,132c6,22 13,27 48,31c23,2 56,10 74,17c41,18 63,1 63,-47c0,-77 55,-133 131,-133c42,0 55,5 85,33c29,26 37,42 41,80c4,30 10,47 19,47c32,0 142,166 199,300c34,79 35,85 19,97c-10,7 -32,13 -48,13c-17,1 -56,9 -86,20c-69,24 -83,25 -104,1c-15,-16 -22,-18 -47,-9c-24,8 -39,7 -69,-7c-49,-22 -85,-14 -105,25c-36,70 -6,146 69,175c39,15 51,16 74,5c59,-27 81,-30 92,-10c6,10 10,35 10,54l0,36l-300,0c-280,0 -303,-1 -338,-20c-76,-40 -85,-55 -52,-85c14,-13 20,-31 20,-62l0,-43l-65,0l-65,0l0,53c0,51 -1,54 -36,71c-35,16 -36,19 -31,56c3,27 1,43 -9,51c-24,20 -43,-6 -37,-49c5,-35 3,-38 -31,-55c-35,-16 -36,-18 -36,-72l0,-55l-86,0c-85,0 -86,0 -80,23c4,18 -3,32 -34,62l-40,39l-40,-39c-31,-30 -38,-44 -34,-62c6,-22 4,-23 -65,-23c-41,0 -71,4 -71,10c0,6 5,10 12,10c6,0 3,9 -7,20c-17,19 -20,19 -36,4c-10,-9 -15,-22 -12,-30c4,-11 -12,-14 -84,-14c-56,0 -93,4 -101,12c-18,18 -15,188 3,212c8,11 15,32 15,48c0,30 -25,43 -71,36c-21,-3 -24,-8 -21,-38c10,-122 13,-233 7,-248c-5,-13 -13,-4 -35,38c-25,46 -29,67 -30,133c0,64 -4,83 -22,107c-27,38 -41,38 -67,1z" style=""/>
              </g>
            </g>
          </g>
        </g>
      </g>
    </g>
  </g>
  <g transform="matrix(-1.115312, 0, 0, 1, 232.65971, 6.07812)" style="">
    <title>Layer 1</title>
    <g id="svg_6">
      <g id="svg_4" fill="#000000" transform="matrix(0.002441406286379788,0,0,-0.002441406286379788,0,15.624999999999972) "/>
    </g>
    <g stroke="null" id="g-2">
      <g id="g-3" fill="#000000" transform="matrix(0.015439570588048951,0,0,-0.016461669159243384,-31411.329712113446,-14125.303520470641) ">
        <path stroke="null" id="path-1" d="M 2046993.937 -861792.789 C 2047337.849 -861779.196 2047210.173 -861787.017 2046038.615 -861769.511 C 2046027.933 -861769.511 2045969.625 -862651.125 2045969.625 -862651.125 L 2046231.625 -862378.125 L 2046439.625 -862371.125 C 2046758.625 -862360.125 2046959.625 -862325.125 2046977.625 -862277.125 C 2046981.625 -862266.125 2047004.625 -862263.125 2047073.625 -862263.125 L 2047163.625 -862263.125 L 2047163.625 -862223.125 L 2047163.625 -862183.125 L 2047213.625 -862183.125 L 2047263.625 -862183.125 L 2047263.625 -862223.125 C 2047263.625 -862259.125 2047266.625 -862263.125 2047288.625 -862263.125 L 2047313.625 -862263.125 L 2047313.625 -862023.125 L 2047313.625 -861783.125 L 2047289.625 -861783.125 C 2047268.625 -861783.125 2047264.625 -861788.125 2047261.625 -861820.125 C 2047258.625 -861858.125 2047258.625 -861858.125 2047211.625 -861861.125 L 2047163.625 -861864.125 L 2047163.625 -861824.125 L 2047163.625 -861784.125 L 2047073.625 -861781.125 L 2046993.937 -861792.789 Z"/>
      </g>
    </g>
  </g>
  <g transform="matrix(0.016202, 0, 0, -0.005148, 7.862587, 109.08895)" fill="#000000" stroke="none" style="">
    <path d="M169 3806 c-92 -33 -152 -115 -152 -210 0 -87 43 -150 133 -197 42 -23 55 -24 220 -24 163 0 178 2 225 24 46 22 62 23 210 23 146 -1 164 -3 210 -24 46 -21 63 -23 225 -23 163 0 178 2 225 24 46 21 62 23 208 23 145 -1 163 -3 205 -24 44 -21 59 -23 222 -23 163 0 178 2 225 24 46 21 63 23 210 23 146 0 164 -2 210 -24 46 -21 63 -23 225 -23 165 0 178 1 224 24 45 22 59 24 211 23 150 0 166 -2 206 -24 41 -22 55 -23 219 -23 164 0 178 2 225 24 46 22 61 24 201 22 134 -1 157 -4 200 -23 45 -21 64 -23 224 -23 165 0 178 1 224 24 46 23 59 24 205 23 140 -1 161 -3 206 -24 46 -21 63 -23 225 -23 163 0 178 2 225 24 46 21 62 23 208 23 145 -1 163 -3 205 -24 44 -21 59 -23 222 -23 163 0 178 2 225 24 46 22 62 23 210 23 146 -1 164 -3 210 -24 46 -21 63 -23 225 -23 164 0 178 2 225 24 47 22 61 24 204 22 139 -1 159 -3 200 -23 42 -21 60 -23 221 -23 163 0 178 2 225 23 46 22 63 24 210 24 146 0 164 -2 210 -24 46 -21 63 -23 225 -23 165 0 178 1 224 24 46 23 59 24 205 23 140 -1 161 -3 206 -24 46 -21 63 -23 225 -23 165 0 178 1 224 24 46 23 59 24 210 23 146 -1 166 -3 211 -24 46 -21 64 -23 225 -23 165 0 178 1 224 24 46 23 59 24 208 23 145 -1 164 -3 206 -24 44 -21 59 -23 222 -23 164 0 178 2 225 24 46 22 61 24 201 22 134 -1 157 -4 200 -23 45 -21 64 -23 224 -23 165 0 178 1 220 24 59 31 88 57 112 106 43 83 16 204 -59 261 -61 46 -95 53 -274 54 -175 0 -212 -6 -266 -46 -29 -22 -41 -24 -161 -24 -98 0 -132 3 -141 14 -6 8 -34 24 -62 36 -47 20 -64 21 -233 18 l-183 -3 -52 -32 c-52 -33 -53 -33 -181 -33 -128 0 -129 0 -181 33 l-52 32 -176 3 c-190 4 -234 -3 -288 -44 -30 -23 -39 -24 -172 -24 -91 0 -142 4 -147 11 -3 6 -30 22 -58 35 -48 22 -63 24 -226 24 -163 0 -178 -2 -226 -24 -28 -13 -55 -29 -58 -35 -5 -7 -54 -11 -141 -11 -133 0 -134 0 -186 32 l-52 33 -176 3 c-190 4 -234 -3 -288 -44 -30 -23 -40 -24 -165 -24 -126 0 -136 2 -166 24 -55 40 -104 48 -293 44 l-176 -3 -52 -32 c-52 -33 -53 -33 -181 -33 -83 0 -131 4 -136 11 -3 6 -30 22 -58 35 -48 22 -63 24 -226 24 -163 0 -178 -2 -226 -24 -28 -13 -55 -29 -58 -35 -11 -17 -290 -15 -305 3 -6 8 -34 24 -62 36 -47 20 -64 21 -233 18 l-183 -3 -52 -32 c-52 -33 -53 -33 -186 -33 -87 0 -136 4 -141 11 -3 6 -30 22 -58 35 -48 22 -63 24 -226 24 -163 0 -178 -2 -226 -24 -28 -13 -55 -29 -58 -35 -5 -7 -54 -11 -141 -11 -133 0 -134 0 -186 33 l-52 32 -176 3 c-189 4 -238 -4 -293 -44 -30 -22 -41 -24 -158 -24 -113 0 -129 2 -144 19 -35 39 -99 51 -270 51 -175 0 -214 -7 -266 -45 -32 -24 -41 -25 -166 -25 -132 0 -133 0 -185 33 l-52 32 -183 3 c-169 3 -186 2 -233 -18 -28 -12 -56 -28 -62 -36 -17 -20 -291 -20 -308 0 -6 8 -34 24 -62 36 -47 20 -64 21 -233 18 l-183 -3 -52 -32 c-52 -33 -53 -33 -186 -33 -87 0 -136 4 -141 11 -3 6 -30 22 -58 35 -48 22 -63 24 -226 24 -163 0 -178 -2 -226 -24 -28 -13 -55 -29 -58 -35 -5 -7 -56 -11 -147 -11 -132 0 -142 1 -172 24 -18 13 -47 28 -66 35 -48 16 -355 14 -402 -3z m306 -150 c-18 -28 -23 -78 -12 -118 l7 -28 -110 0 c-121 0 -166 12 -194 51 -23 34 -20 57 13 90 l29 29 141 0 141 0 -15 -24z m869 3 c-20 -22 -26 -98 -10 -131 7 -17 0 -18 -88 -18 -93 0 -96 1 -86 19 15 28 12 88 -5 121 l-16 30 112 0 112 0 -19 -21z m854 -14 c-20 -35 -21 -71 -3 -117 7 -16 -1 -18 -85 -18 -84 0 -91 1 -84 18 16 33 10 109 -10 131 l-19 21 111 0 111 0 -21 -35z m867 5 c-17 -33 -20 -93 -5 -121 10 -18 7 -19 -85 -19 -86 0 -113 8 -85 25 15 9 12 89 -5 111 -8 10 -15 22 -15 27 0 4 47 7 105 7 l106 0 -16 -30z m873 8 c-25 -39 -29 -75 -14 -113 l15 -35 -96 0 c-87 0 -95 2 -88 18 16 42 15 78 -3 115 l-20 37 110 0 110 0 -14 -22z m852 15 c0 -5 -7 -17 -15 -27 -17 -22 -20 -102 -5 -111 27 -16 3 -25 -69 -25 l-80 0 6 54 c4 38 1 63 -10 85 l-15 31 94 0 c52 0 94 -3 94 -7z m854 -14 c-20 -22 -26 -98 -10 -131 7 -17 0 -18 -84 -18 -84 0 -92 2 -85 18 18 46 17 82 -3 117 l-21 35 111 0 111 0 -19 -21z m854 -14 c-20 -35 -21 -71 -3 -117 7 -16 -1 -18 -84 -18 -90 0 -92 0 -80 21 16 30 14 81 -5 118 l-17 31 105 0 105 0 -21 -35z m870 -2 c-18 -37 -19 -73 -3 -115 7 -16 -1 -18 -84 -18 l-91 0 7 28 c11 40 6 90 -12 118 l-15 24 109 0 109 0 -20 -37z m858 12 c-18 -28 -23 -77 -12 -117 l8 -28 -86 0 c-83 0 -86 1 -76 19 15 28 12 88 -5 121 l-16 30 102 0 101 0 -16 -25z m859 -5 c-17 -33 -20 -93 -5 -121 10 -18 7 -19 -81 -19 l-91 0 8 28 c12 40 7 90 -11 118 l-15 24 105 0 106 0 -16 -30z m864 1 c-21 -29 -23 -81 -5 -123 7 -16 0 -18 -84 -18 -84 0 -92 2 -85 18 16 42 15 78 -3 115 l-20 37 109 0 110 0 -22 -29z m870 0 c-21 -29 -23 -81 -5 -123 7 -16 0 -18 -88 -18 -93 0 -96 1 -86 19 15 28 12 88 -5 121 l-16 30 111 0 111 0 -22 -29z m860 -6 c-21 -35 -22 -76 -4 -117 6 -16 -1 -18 -85 -18 -84 0 -91 1 -84 18 16 33 10 109 -10 131 l-19 21 111 0 111 0 -20 -35z m942 6 c33 -33 36 -56 13 -90 -27 -37 -74 -51 -178 -51 l-96 0 10 26 c14 37 12 81 -5 114 l-16 30 122 0 c120 0 121 0 150 -29z m-11741 -61 c0 -18 -7 -20 -75 -20 -56 0 -75 3 -75 13 0 23 11 27 82 27 61 0 68 -2 68 -20z m860 0 c0 -18 -7 -20 -70 -20 -63 0 -70 2 -70 20 0 18 7 20 70 20 63 0 70 -2 70 -20z m868 -2 c3 -16 -6 -18 -72 -18 -57 0 -76 3 -76 13 0 24 13 28 79 25 53 -2 66 -6 69 -20z m862 2 c0 -18 -7 -20 -70 -20 -63 0 -70 2 -70 20 0 18 7 20 70 20 63 0 70 -2 70 -20z m840 0 c0 -18 -7 -20 -60 -20 -43 0 -60 4 -60 13 0 23 11 27 67 27 46 0 53 -2 53 -20z m870 0 c0 -18 -7 -20 -70 -20 -63 0 -70 2 -70 20 0 18 7 20 70 20 63 0 70 -2 70 -20z m860 0 c0 -18 -7 -20 -70 -20 -63 0 -70 2 -70 20 0 18 7 20 70 20 63 0 70 -2 70 -20z m868 -2 c3 -16 -6 -18 -72 -18 -57 0 -76 3 -76 13 0 24 13 28 79 25 53 -2 66 -6 69 -20z m852 2 c0 -18 -7 -20 -65 -20 -47 0 -65 4 -65 13 0 23 11 27 72 27 51 0 58 -2 58 -20z m868 -2 c3 -16 -5 -18 -67 -18 -65 0 -71 2 -71 20 0 19 5 21 67 18 55 -2 68 -6 71 -20z m862 2 c0 -18 -7 -20 -70 -20 -63 0 -70 2 -70 20 0 18 7 20 70 20 63 0 70 -2 70 -20z m868 -2 c3 -16 -6 -18 -72 -18 -70 0 -76 2 -76 20 0 19 5 21 72 18 60 -2 73 -6 76 -20z m862 2 c0 -18 -7 -20 -70 -20 -63 0 -70 2 -70 20 0 18 7 20 70 20 63 0 70 -2 70 -20z m848 -2 c3 -16 -5 -18 -62 -18 -48 0 -66 4 -66 13 0 23 13 28 70 25 43 -2 56 -7 58 -20z m-7598 2 c0 -5 -4 -10 -10 -10 -5 0 -10 5 -10 10 0 6 5 10 10 10 6 0 10 -4 10 -10z"/>
  </g>
</svg>