<?xml version="1.0" encoding="utf-8"?>
<svg viewBox="204.248 137.083 201.115 83.017" xmlns="http://www.w3.org/2000/svg">
  <g transform="matrix(1.010795, 0, 0, 1, 205.070584, 144.650144)" style="">
    <title>Layer 1</title>
    <g id="svg_6">
      <g id="svg_4" fill="#000000" transform="matrix(0.002441406286379788,0,0,-0.002441406286379788,0,15.624999999999972) "/>
    </g>
    <g stroke="null" id="g-2">
      <g id="g-3" fill="#000000" transform="matrix(0.015439570588048951,0,0,-0.016461669159243384,-31411.329712113446,-14125.303520470641) ">
        <path stroke="null" id="path-1" d="M 2035127.499 -858168.252 C 2034959.499 -858181.252 2034842.499 -858208.252 2034808.499 -858242.252 C 2034793.499 -858257.252 2034792.499 -858371.252 2034792.499 -859715.252 L 2034792.499 -861172.252 L 2034702.499 -861175.252 L 2034612.499 -861178.252 L 2034612.499 -861218.252 L 2034612.499 -861258.252 L 2034564.499 -861255.252 C 2034517.499 -861252.252 2034517.499 -861252.252 2034514.499 -861214.252 C 2034511.499 -861182.252 2034507.499 -861177.252 2034486.499 -861177.252 L 2034462.499 -861177.252 L 2034462.499 -861417.252 L 2034462.499 -861657.252 L 2034487.499 -861657.252 C 2034510.499 -861657.252 2034512.499 -861653.252 2034512.499 -861617.252 L 2034512.499 -861577.252 L 2034562.499 -861577.252 L 2034612.499 -861577.252 L 2034612.499 -861617.252 L 2034612.499 -861657.252 L 2034702.499 -861657.252 C 2034771.499 -861657.252 2034794.499 -861660.252 2034798.499 -861671.252 C 2034816.499 -861719.252 2035017.499 -861754.252 2035336.499 -861765.252 L 2035546.499 -861772.252 L 2035605.499 -861909.252 L 2035664.499 -862047.252 L 2035801.499 -862047.252 L 2035937.499 -862047.252 L 2035950.499 -862124.252 C 2035984.499 -862337.252 2036156.499 -862523.252 2036363.499 -862572.252 C 2036554.499 -862617.252 2036748.499 -862560.252 2036885.499 -862419.252 C 2036976.499 -862324.252 2037042.499 -862182.252 2037042.499 -862080.252 C 2037042.499 -862048.252 2037043.499 -862047.252 2037085.499 -862047.252 L 2037127.499 -862047.252 L 2037144.499 -862133.252 C 2037167.499 -862255.252 2037211.499 -862337.252 2037296.499 -862423.252 C 2037500.499 -862627.252 2037808.499 -862642.252 2038038.499 -862460.252 C 2038134.499 -862383.252 2038214.499 -862237.252 2038230.499 -862108.252 L 2038237.499 -862052.252 L 2038370.499 -862047.252 L 2038504.499 -862042.252 L 2038568.499 -861907.252 L 2038632.499 -861772.252 L 2040894.499 -861769.252 L 2043157.499 -861767.252 L 2043247.499 -861907.252 L 2043337.499 -862046.252 L 2043423.499 -862047.252 L 2043510.499 -862047.252 L 2043521.499 -862121.252 C 2043549.499 -862314.252 2043647.499 -862454.252 2043814.499 -862542.252 C 2043975.499 -862627.252 2044160.499 -862627.252 2044321.499 -862542.252 C 2044487.499 -862454.252 2044585.499 -862313.252 2044613.499 -862121.252 L 2044625.499 -862046.252 L 2044666.499 -862049.252 L 2044707.499 -862052.252 L 2044713.499 -862117.252 C 2044746.499 -862439.252 2045065.499 -862666.252 2045381.499 -862592.252 C 2045590.499 -862542.252 2045753.499 -862376.252 2045797.499 -862170.252 C 2045805.499 -862133.252 2045812.499 -862090.252 2045812.499 -862075.252 L 2045812.499 -862048.252 L 2045918.499 -862045.252 L 2046024.499 -862042.252 L 2046102.499 -861907.252 L 2046180.499 -861772.252 L 2046388.499 -861765.252 C 2046707.499 -861754.252 2046908.499 -861719.252 2046926.499 -861671.252 C 2046930.499 -861660.252 2046953.499 -861657.252 2047022.499 -861657.252 L 2047112.499 -861657.252 L 2047112.499 -861617.252 L 2047112.499 -861577.252 L 2047162.499 -861577.252 L 2047212.499 -861577.252 L 2047212.499 -861617.252 C 2047212.499 -861653.252 2047215.499 -861657.252 2047237.499 -861657.252 L 2047262.499 -861657.252 L 2047262.499 -861417.252 L 2047262.499 -861177.252 L 2047238.499 -861177.252 C 2047217.499 -861177.252 2047213.499 -861182.252 2047210.499 -861214.252 C 2047207.499 -861252.252 2047207.499 -861252.252 2047160.499 -861255.252 L 2047112.499 -861258.252 L 2047112.499 -861218.252 L 2047112.499 -861178.252 L 2047022.499 -861175.252 L 2046932.499 -861172.252 L 2046932.499 -859715.252 C 2046932.499 -858371.252 2046931.499 -858257.252 2046916.499 -858242.252 C 2046880.499 -858206.252 2046771.499 -858182.252 2046577.499 -858168.252 C 2046406.499 -858155.252 2035296.499 -858155.252 2035127.499 -858168.252 Z"/>
      </g>
    </g>
  </g>
  <g transform="matrix(0.016202, 0, 0, -0.005148, 201.272748, 237.369931)" fill="#000000" stroke="none" style="">
    <path d="M169 3806 c-92 -33 -152 -115 -152 -210 0 -87 43 -150 133 -197 42 -23 55 -24 220 -24 163 0 178 2 225 24 46 22 62 23 210 23 146 -1 164 -3 210 -24 46 -21 63 -23 225 -23 163 0 178 2 225 24 46 21 62 23 208 23 145 -1 163 -3 205 -24 44 -21 59 -23 222 -23 163 0 178 2 225 24 46 21 63 23 210 23 146 0 164 -2 210 -24 46 -21 63 -23 225 -23 165 0 178 1 224 24 45 22 59 24 211 23 150 0 166 -2 206 -24 41 -22 55 -23 219 -23 164 0 178 2 225 24 46 22 61 24 201 22 134 -1 157 -4 200 -23 45 -21 64 -23 224 -23 165 0 178 1 224 24 46 23 59 24 205 23 140 -1 161 -3 206 -24 46 -21 63 -23 225 -23 163 0 178 2 225 24 46 21 62 23 208 23 145 -1 163 -3 205 -24 44 -21 59 -23 222 -23 163 0 178 2 225 24 46 22 62 23 210 23 146 -1 164 -3 210 -24 46 -21 63 -23 225 -23 164 0 178 2 225 24 47 22 61 24 204 22 139 -1 159 -3 200 -23 42 -21 60 -23 221 -23 163 0 178 2 225 23 46 22 63 24 210 24 146 0 164 -2 210 -24 46 -21 63 -23 225 -23 165 0 178 1 224 24 46 23 59 24 205 23 140 -1 161 -3 206 -24 46 -21 63 -23 225 -23 165 0 178 1 224 24 46 23 59 24 210 23 146 -1 166 -3 211 -24 46 -21 64 -23 225 -23 165 0 178 1 224 24 46 23 59 24 208 23 145 -1 164 -3 206 -24 44 -21 59 -23 222 -23 164 0 178 2 225 24 46 22 61 24 201 22 134 -1 157 -4 200 -23 45 -21 64 -23 224 -23 165 0 178 1 220 24 59 31 88 57 112 106 43 83 16 204 -59 261 -61 46 -95 53 -274 54 -175 0 -212 -6 -266 -46 -29 -22 -41 -24 -161 -24 -98 0 -132 3 -141 14 -6 8 -34 24 -62 36 -47 20 -64 21 -233 18 l-183 -3 -52 -32 c-52 -33 -53 -33 -181 -33 -128 0 -129 0 -181 33 l-52 32 -176 3 c-190 4 -234 -3 -288 -44 -30 -23 -39 -24 -172 -24 -91 0 -142 4 -147 11 -3 6 -30 22 -58 35 -48 22 -63 24 -226 24 -163 0 -178 -2 -226 -24 -28 -13 -55 -29 -58 -35 -5 -7 -54 -11 -141 -11 -133 0 -134 0 -186 32 l-52 33 -176 3 c-190 4 -234 -3 -288 -44 -30 -23 -40 -24 -165 -24 -126 0 -136 2 -166 24 -55 40 -104 48 -293 44 l-176 -3 -52 -32 c-52 -33 -53 -33 -181 -33 -83 0 -131 4 -136 11 -3 6 -30 22 -58 35 -48 22 -63 24 -226 24 -163 0 -178 -2 -226 -24 -28 -13 -55 -29 -58 -35 -11 -17 -290 -15 -305 3 -6 8 -34 24 -62 36 -47 20 -64 21 -233 18 l-183 -3 -52 -32 c-52 -33 -53 -33 -186 -33 -87 0 -136 4 -141 11 -3 6 -30 22 -58 35 -48 22 -63 24 -226 24 -163 0 -178 -2 -226 -24 -28 -13 -55 -29 -58 -35 -5 -7 -54 -11 -141 -11 -133 0 -134 0 -186 33 l-52 32 -176 3 c-189 4 -238 -4 -293 -44 -30 -22 -41 -24 -158 -24 -113 0 -129 2 -144 19 -35 39 -99 51 -270 51 -175 0 -214 -7 -266 -45 -32 -24 -41 -25 -166 -25 -132 0 -133 0 -185 33 l-52 32 -183 3 c-169 3 -186 2 -233 -18 -28 -12 -56 -28 -62 -36 -17 -20 -291 -20 -308 0 -6 8 -34 24 -62 36 -47 20 -64 21 -233 18 l-183 -3 -52 -32 c-52 -33 -53 -33 -186 -33 -87 0 -136 4 -141 11 -3 6 -30 22 -58 35 -48 22 -63 24 -226 24 -163 0 -178 -2 -226 -24 -28 -13 -55 -29 -58 -35 -5 -7 -56 -11 -147 -11 -132 0 -142 1 -172 24 -18 13 -47 28 -66 35 -48 16 -355 14 -402 -3z m306 -150 c-18 -28 -23 -78 -12 -118 l7 -28 -110 0 c-121 0 -166 12 -194 51 -23 34 -20 57 13 90 l29 29 141 0 141 0 -15 -24z m869 3 c-20 -22 -26 -98 -10 -131 7 -17 0 -18 -88 -18 -93 0 -96 1 -86 19 15 28 12 88 -5 121 l-16 30 112 0 112 0 -19 -21z m854 -14 c-20 -35 -21 -71 -3 -117 7 -16 -1 -18 -85 -18 -84 0 -91 1 -84 18 16 33 10 109 -10 131 l-19 21 111 0 111 0 -21 -35z m867 5 c-17 -33 -20 -93 -5 -121 10 -18 7 -19 -85 -19 -86 0 -113 8 -85 25 15 9 12 89 -5 111 -8 10 -15 22 -15 27 0 4 47 7 105 7 l106 0 -16 -30z m873 8 c-25 -39 -29 -75 -14 -113 l15 -35 -96 0 c-87 0 -95 2 -88 18 16 42 15 78 -3 115 l-20 37 110 0 110 0 -14 -22z m852 15 c0 -5 -7 -17 -15 -27 -17 -22 -20 -102 -5 -111 27 -16 3 -25 -69 -25 l-80 0 6 54 c4 38 1 63 -10 85 l-15 31 94 0 c52 0 94 -3 94 -7z m854 -14 c-20 -22 -26 -98 -10 -131 7 -17 0 -18 -84 -18 -84 0 -92 2 -85 18 18 46 17 82 -3 117 l-21 35 111 0 111 0 -19 -21z m854 -14 c-20 -35 -21 -71 -3 -117 7 -16 -1 -18 -84 -18 -90 0 -92 0 -80 21 16 30 14 81 -5 118 l-17 31 105 0 105 0 -21 -35z m870 -2 c-18 -37 -19 -73 -3 -115 7 -16 -1 -18 -84 -18 l-91 0 7 28 c11 40 6 90 -12 118 l-15 24 109 0 109 0 -20 -37z m858 12 c-18 -28 -23 -77 -12 -117 l8 -28 -86 0 c-83 0 -86 1 -76 19 15 28 12 88 -5 121 l-16 30 102 0 101 0 -16 -25z m859 -5 c-17 -33 -20 -93 -5 -121 10 -18 7 -19 -81 -19 l-91 0 8 28 c12 40 7 90 -11 118 l-15 24 105 0 106 0 -16 -30z m864 1 c-21 -29 -23 -81 -5 -123 7 -16 0 -18 -84 -18 -84 0 -92 2 -85 18 16 42 15 78 -3 115 l-20 37 109 0 110 0 -22 -29z m870 0 c-21 -29 -23 -81 -5 -123 7 -16 0 -18 -88 -18 -93 0 -96 1 -86 19 15 28 12 88 -5 121 l-16 30 111 0 111 0 -22 -29z m860 -6 c-21 -35 -22 -76 -4 -117 6 -16 -1 -18 -85 -18 -84 0 -91 1 -84 18 16 33 10 109 -10 131 l-19 21 111 0 111 0 -20 -35z m942 6 c33 -33 36 -56 13 -90 -27 -37 -74 -51 -178 -51 l-96 0 10 26 c14 37 12 81 -5 114 l-16 30 122 0 c120 0 121 0 150 -29z m-11741 -61 c0 -18 -7 -20 -75 -20 -56 0 -75 3 -75 13 0 23 11 27 82 27 61 0 68 -2 68 -20z m860 0 c0 -18 -7 -20 -70 -20 -63 0 -70 2 -70 20 0 18 7 20 70 20 63 0 70 -2 70 -20z m868 -2 c3 -16 -6 -18 -72 -18 -57 0 -76 3 -76 13 0 24 13 28 79 25 53 -2 66 -6 69 -20z m862 2 c0 -18 -7 -20 -70 -20 -63 0 -70 2 -70 20 0 18 7 20 70 20 63 0 70 -2 70 -20z m840 0 c0 -18 -7 -20 -60 -20 -43 0 -60 4 -60 13 0 23 11 27 67 27 46 0 53 -2 53 -20z m870 0 c0 -18 -7 -20 -70 -20 -63 0 -70 2 -70 20 0 18 7 20 70 20 63 0 70 -2 70 -20z m860 0 c0 -18 -7 -20 -70 -20 -63 0 -70 2 -70 20 0 18 7 20 70 20 63 0 70 -2 70 -20z m868 -2 c3 -16 -6 -18 -72 -18 -57 0 -76 3 -76 13 0 24 13 28 79 25 53 -2 66 -6 69 -20z m852 2 c0 -18 -7 -20 -65 -20 -47 0 -65 4 -65 13 0 23 11 27 72 27 51 0 58 -2 58 -20z m868 -2 c3 -16 -5 -18 -67 -18 -65 0 -71 2 -71 20 0 19 5 21 67 18 55 -2 68 -6 71 -20z m862 2 c0 -18 -7 -20 -70 -20 -63 0 -70 2 -70 20 0 18 7 20 70 20 63 0 70 -2 70 -20z m868 -2 c3 -16 -6 -18 -72 -18 -70 0 -76 2 -76 20 0 19 5 21 72 18 60 -2 73 -6 76 -20z m862 2 c0 -18 -7 -20 -70 -20 -63 0 -70 2 -70 20 0 18 7 20 70 20 63 0 70 -2 70 -20z m848 -2 c3 -16 -5 -18 -62 -18 -48 0 -66 4 -66 13 0 23 13 28 70 25 43 -2 56 -7 58 -20z m-7598 2 c0 -5 -4 -10 -10 -10 -5 0 -10 5 -10 10 0 6 5 10 10 10 6 0 10 -4 10 -10z"/>
  </g>
</svg>