<?xml version="1.0" encoding="utf-8"?>
<svg viewBox="0 9.814 200.871 81.914" xmlns="http://www.w3.org/2000/svg">
  <g transform="matrix(-1.009558, 0, 0, 1, 202.947934, 8.404763)" style="">
    <title>Layer 1</title>
    <path stroke="null" id="svg_14" d="M 34.848 80.485 C 33.511 78.503 33.196 76.852 33.196 71.403 C 33.196 67.687 33.511 64.715 33.904 64.715 C 34.376 64.715 34.612 63.724 34.533 62.485 C 34.376 60.751 34.769 60.173 36.343 59.76 C 39.332 59.017 40.59 55.384 40.905 45.972 L 41.22 37.632 L 33.511 32.183 C 29.184 29.21 25.33 26.733 24.858 26.733 C 24.386 26.733 23.363 27.476 22.576 28.385 C 21.79 29.293 20.846 30.036 20.374 30.036 C 19.981 30.036 15.811 26.651 11.092 22.522 C 3.776 16.165 2.517 14.678 2.517 12.614 L 2.517 10.22 L 13.373 10.22 C 20.138 10.22 24.543 10.55 25.094 11.128 C 25.723 11.788 26.195 11.211 26.903 9.064 C 28.24 4.688 31.78 1.963 36.107 1.963 C 42.321 1.963 46.569 6.339 46.569 12.614 C 46.569 14.018 46.962 15.174 47.355 15.174 C 47.827 15.174 48.142 13.77 48.142 12.119 C 48.142 8.568 50.266 4.688 53.019 3.119 C 56.244 1.22 61.908 1.715 64.583 4.11 C 67.1 6.256 68.988 11.541 68.123 13.853 C 67.729 15.009 68.437 15.174 73.629 15.174 L 79.607 15.174 L 80.787 12.119 C 84.249 3.532 93.295 -0.266 101.24 3.532 C 105.016 5.266 108.634 9.477 109.264 12.779 C 109.657 15.009 109.972 15.174 113.039 15.174 C 116.186 15.174 116.501 15.009 117.366 12.366 C 119.254 6.422 125.626 1.963 132.312 1.963 C 138.212 2.045 144.741 7.165 146.078 12.862 C 146.55 14.678 147.101 15.091 149.854 15.421 C 151.663 15.587 154.259 16.247 155.675 16.825 C 158.9 18.311 160.631 16.908 160.631 12.944 C 160.631 6.587 164.957 1.963 170.936 1.963 C 174.24 1.963 175.262 2.376 177.622 4.688 C 179.903 6.834 180.533 8.156 180.847 11.293 C 181.162 13.77 181.634 15.174 182.342 15.174 C 184.859 15.174 193.512 28.88 197.996 39.944 C 200.671 46.467 200.749 46.962 199.491 47.953 C 198.704 48.531 196.973 49.027 195.715 49.027 C 194.377 49.109 191.31 49.77 188.95 50.678 C 183.522 52.66 182.421 52.742 180.769 50.761 C 179.589 49.439 179.038 49.274 177.072 50.017 C 175.184 50.678 174.004 50.595 171.644 49.439 C 167.789 47.623 164.957 48.284 163.384 51.504 C 160.552 57.283 162.912 63.559 168.812 65.953 C 171.88 67.192 172.824 67.274 174.633 66.366 C 179.274 64.137 181.005 63.889 181.87 65.54 C 182.342 66.366 182.657 68.43 182.657 69.999 L 182.657 72.971 L 159.058 72.971 C 137.032 72.971 135.223 72.889 132.469 71.32 C 126.491 68.017 125.783 66.779 128.379 64.302 C 129.48 63.228 129.952 61.742 129.952 59.182 L 129.952 55.632 L 124.839 55.632 L 119.726 55.632 L 119.726 60.008 C 119.726 64.219 119.647 64.467 116.894 65.87 C 114.141 67.192 114.062 67.439 114.455 70.494 C 114.691 72.724 114.534 74.045 113.747 74.705 C 111.86 76.357 110.365 74.21 110.837 70.659 C 111.23 67.77 111.073 67.522 108.398 66.118 C 105.645 64.797 105.566 64.632 105.566 60.173 L 105.566 55.632 L 98.801 55.632 C 92.115 55.632 92.036 55.632 92.508 57.531 C 92.823 59.017 92.272 60.173 89.834 62.65 L 86.687 65.87 L 83.541 62.65 C 81.102 60.173 80.551 59.017 80.866 57.531 C 81.338 55.715 81.181 55.632 75.753 55.632 C 72.528 55.632 70.168 55.962 70.168 56.458 C 70.168 56.953 70.561 57.283 71.112 57.283 C 71.584 57.283 71.348 58.027 70.561 58.935 C 69.224 60.504 68.988 60.504 67.729 59.265 C 66.943 58.522 66.549 57.449 66.785 56.788 C 67.1 55.88 65.841 55.632 60.178 55.632 C 55.772 55.632 52.862 55.962 52.233 56.623 C 50.817 58.109 51.053 72.146 52.469 74.127 C 53.098 75.036 53.649 76.769 53.649 78.091 C 53.649 80.568 51.682 81.641 48.063 81.063 C 46.411 80.815 46.176 80.402 46.411 77.925 C 47.198 67.852 47.434 58.687 46.962 57.449 C 46.569 56.375 45.94 57.118 44.209 60.586 C 42.242 64.384 41.928 66.118 41.849 71.568 C 41.849 76.852 41.534 78.421 40.118 80.402 C 37.995 83.54 36.893 83.54 34.848 80.485 Z" style="" transform="matrix(-1, 0, 0, -1, 202.795673, 84.72234)"/>
  </g>
  <g transform="matrix(1.010795, 0, 0, 1, -0.359846, 6.478403)" style="">
    <title>Layer 1</title>
    <g id="svg_6">
      <g id="svg_4" fill="#000000" transform="matrix(0.002441406286379788,0,0,-0.002441406286379788,0,15.624999999999972) "/>
    </g>
    <g stroke="null" id="g-2">
      <g id="g-3" fill="#000000" transform="matrix(0.015439570588048951,0,0,-0.016461669159243384,-31411.329712113446,-14125.303520470641) ">
        <path stroke="null" id="path-1" d="M 2046993.937 -861792.789 C 2047337.849 -861779.196 2047210.173 -861787.017 2046038.615 -861769.511 C 2046027.933 -861769.511 2045969.625 -862651.125 2045969.625 -862651.125 L 2046231.625 -862378.125 L 2046439.625 -862371.125 C 2046758.625 -862360.125 2046959.625 -862325.125 2046977.625 -862277.125 C 2046981.625 -862266.125 2047004.625 -862263.125 2047073.625 -862263.125 L 2047163.625 -862263.125 L 2047163.625 -862223.125 L 2047163.625 -862183.125 L 2047213.625 -862183.125 L 2047263.625 -862183.125 L 2047263.625 -862223.125 C 2047263.625 -862259.125 2047266.625 -862263.125 2047288.625 -862263.125 L 2047313.625 -862263.125 L 2047313.625 -862023.125 L 2047313.625 -861783.125 L 2047289.625 -861783.125 C 2047268.625 -861783.125 2047264.625 -861788.125 2047261.625 -861820.125 C 2047258.625 -861858.125 2047258.625 -861858.125 2047211.625 -861861.125 L 2047163.625 -861864.125 L 2047163.625 -861824.125 L 2047163.625 -861784.125 L 2047073.625 -861781.125 L 2046993.937 -861792.789 Z"/>
      </g>
    </g>
  </g>
  <g transform="matrix(0.016202, 0, 0, -0.005148, -3.233655, 109.525687)" fill="#000000" stroke="none" style="">
    <path d="M169 3806 c-92 -33 -152 -115 -152 -210 0 -87 43 -150 133 -197 42 -23 55 -24 220 -24 163 0 178 2 225 24 46 22 62 23 210 23 146 -1 164 -3 210 -24 46 -21 63 -23 225 -23 163 0 178 2 225 24 46 21 62 23 208 23 145 -1 163 -3 205 -24 44 -21 59 -23 222 -23 163 0 178 2 225 24 46 21 63 23 210 23 146 0 164 -2 210 -24 46 -21 63 -23 225 -23 165 0 178 1 224 24 45 22 59 24 211 23 150 0 166 -2 206 -24 41 -22 55 -23 219 -23 164 0 178 2 225 24 46 22 61 24 201 22 134 -1 157 -4 200 -23 45 -21 64 -23 224 -23 165 0 178 1 224 24 46 23 59 24 205 23 140 -1 161 -3 206 -24 46 -21 63 -23 225 -23 163 0 178 2 225 24 46 21 62 23 208 23 145 -1 163 -3 205 -24 44 -21 59 -23 222 -23 163 0 178 2 225 24 46 22 62 23 210 23 146 -1 164 -3 210 -24 46 -21 63 -23 225 -23 164 0 178 2 225 24 47 22 61 24 204 22 139 -1 159 -3 200 -23 42 -21 60 -23 221 -23 163 0 178 2 225 23 46 22 63 24 210 24 146 0 164 -2 210 -24 46 -21 63 -23 225 -23 165 0 178 1 224 24 46 23 59 24 205 23 140 -1 161 -3 206 -24 46 -21 63 -23 225 -23 165 0 178 1 224 24 46 23 59 24 210 23 146 -1 166 -3 211 -24 46 -21 64 -23 225 -23 165 0 178 1 224 24 46 23 59 24 208 23 145 -1 164 -3 206 -24 44 -21 59 -23 222 -23 164 0 178 2 225 24 46 22 61 24 201 22 134 -1 157 -4 200 -23 45 -21 64 -23 224 -23 165 0 178 1 220 24 59 31 88 57 112 106 43 83 16 204 -59 261 -61 46 -95 53 -274 54 -175 0 -212 -6 -266 -46 -29 -22 -41 -24 -161 -24 -98 0 -132 3 -141 14 -6 8 -34 24 -62 36 -47 20 -64 21 -233 18 l-183 -3 -52 -32 c-52 -33 -53 -33 -181 -33 -128 0 -129 0 -181 33 l-52 32 -176 3 c-190 4 -234 -3 -288 -44 -30 -23 -39 -24 -172 -24 -91 0 -142 4 -147 11 -3 6 -30 22 -58 35 -48 22 -63 24 -226 24 -163 0 -178 -2 -226 -24 -28 -13 -55 -29 -58 -35 -5 -7 -54 -11 -141 -11 -133 0 -134 0 -186 32 l-52 33 -176 3 c-190 4 -234 -3 -288 -44 -30 -23 -40 -24 -165 -24 -126 0 -136 2 -166 24 -55 40 -104 48 -293 44 l-176 -3 -52 -32 c-52 -33 -53 -33 -181 -33 -83 0 -131 4 -136 11 -3 6 -30 22 -58 35 -48 22 -63 24 -226 24 -163 0 -178 -2 -226 -24 -28 -13 -55 -29 -58 -35 -11 -17 -290 -15 -305 3 -6 8 -34 24 -62 36 -47 20 -64 21 -233 18 l-183 -3 -52 -32 c-52 -33 -53 -33 -186 -33 -87 0 -136 4 -141 11 -3 6 -30 22 -58 35 -48 22 -63 24 -226 24 -163 0 -178 -2 -226 -24 -28 -13 -55 -29 -58 -35 -5 -7 -54 -11 -141 -11 -133 0 -134 0 -186 33 l-52 32 -176 3 c-189 4 -238 -4 -293 -44 -30 -22 -41 -24 -158 -24 -113 0 -129 2 -144 19 -35 39 -99 51 -270 51 -175 0 -214 -7 -266 -45 -32 -24 -41 -25 -166 -25 -132 0 -133 0 -185 33 l-52 32 -183 3 c-169 3 -186 2 -233 -18 -28 -12 -56 -28 -62 -36 -17 -20 -291 -20 -308 0 -6 8 -34 24 -62 36 -47 20 -64 21 -233 18 l-183 -3 -52 -32 c-52 -33 -53 -33 -186 -33 -87 0 -136 4 -141 11 -3 6 -30 22 -58 35 -48 22 -63 24 -226 24 -163 0 -178 -2 -226 -24 -28 -13 -55 -29 -58 -35 -5 -7 -56 -11 -147 -11 -132 0 -142 1 -172 24 -18 13 -47 28 -66 35 -48 16 -355 14 -402 -3z m306 -150 c-18 -28 -23 -78 -12 -118 l7 -28 -110 0 c-121 0 -166 12 -194 51 -23 34 -20 57 13 90 l29 29 141 0 141 0 -15 -24z m869 3 c-20 -22 -26 -98 -10 -131 7 -17 0 -18 -88 -18 -93 0 -96 1 -86 19 15 28 12 88 -5 121 l-16 30 112 0 112 0 -19 -21z m854 -14 c-20 -35 -21 -71 -3 -117 7 -16 -1 -18 -85 -18 -84 0 -91 1 -84 18 16 33 10 109 -10 131 l-19 21 111 0 111 0 -21 -35z m867 5 c-17 -33 -20 -93 -5 -121 10 -18 7 -19 -85 -19 -86 0 -113 8 -85 25 15 9 12 89 -5 111 -8 10 -15 22 -15 27 0 4 47 7 105 7 l106 0 -16 -30z m873 8 c-25 -39 -29 -75 -14 -113 l15 -35 -96 0 c-87 0 -95 2 -88 18 16 42 15 78 -3 115 l-20 37 110 0 110 0 -14 -22z m852 15 c0 -5 -7 -17 -15 -27 -17 -22 -20 -102 -5 -111 27 -16 3 -25 -69 -25 l-80 0 6 54 c4 38 1 63 -10 85 l-15 31 94 0 c52 0 94 -3 94 -7z m854 -14 c-20 -22 -26 -98 -10 -131 7 -17 0 -18 -84 -18 -84 0 -92 2 -85 18 18 46 17 82 -3 117 l-21 35 111 0 111 0 -19 -21z m854 -14 c-20 -35 -21 -71 -3 -117 7 -16 -1 -18 -84 -18 -90 0 -92 0 -80 21 16 30 14 81 -5 118 l-17 31 105 0 105 0 -21 -35z m870 -2 c-18 -37 -19 -73 -3 -115 7 -16 -1 -18 -84 -18 l-91 0 7 28 c11 40 6 90 -12 118 l-15 24 109 0 109 0 -20 -37z m858 12 c-18 -28 -23 -77 -12 -117 l8 -28 -86 0 c-83 0 -86 1 -76 19 15 28 12 88 -5 121 l-16 30 102 0 101 0 -16 -25z m859 -5 c-17 -33 -20 -93 -5 -121 10 -18 7 -19 -81 -19 l-91 0 8 28 c12 40 7 90 -11 118 l-15 24 105 0 106 0 -16 -30z m864 1 c-21 -29 -23 -81 -5 -123 7 -16 0 -18 -84 -18 -84 0 -92 2 -85 18 16 42 15 78 -3 115 l-20 37 109 0 110 0 -22 -29z m870 0 c-21 -29 -23 -81 -5 -123 7 -16 0 -18 -88 -18 -93 0 -96 1 -86 19 15 28 12 88 -5 121 l-16 30 111 0 111 0 -22 -29z m860 -6 c-21 -35 -22 -76 -4 -117 6 -16 -1 -18 -85 -18 -84 0 -91 1 -84 18 16 33 10 109 -10 131 l-19 21 111 0 111 0 -20 -35z m942 6 c33 -33 36 -56 13 -90 -27 -37 -74 -51 -178 -51 l-96 0 10 26 c14 37 12 81 -5 114 l-16 30 122 0 c120 0 121 0 150 -29z m-11741 -61 c0 -18 -7 -20 -75 -20 -56 0 -75 3 -75 13 0 23 11 27 82 27 61 0 68 -2 68 -20z m860 0 c0 -18 -7 -20 -70 -20 -63 0 -70 2 -70 20 0 18 7 20 70 20 63 0 70 -2 70 -20z m868 -2 c3 -16 -6 -18 -72 -18 -57 0 -76 3 -76 13 0 24 13 28 79 25 53 -2 66 -6 69 -20z m862 2 c0 -18 -7 -20 -70 -20 -63 0 -70 2 -70 20 0 18 7 20 70 20 63 0 70 -2 70 -20z m840 0 c0 -18 -7 -20 -60 -20 -43 0 -60 4 -60 13 0 23 11 27 67 27 46 0 53 -2 53 -20z m870 0 c0 -18 -7 -20 -70 -20 -63 0 -70 2 -70 20 0 18 7 20 70 20 63 0 70 -2 70 -20z m860 0 c0 -18 -7 -20 -70 -20 -63 0 -70 2 -70 20 0 18 7 20 70 20 63 0 70 -2 70 -20z m868 -2 c3 -16 -6 -18 -72 -18 -57 0 -76 3 -76 13 0 24 13 28 79 25 53 -2 66 -6 69 -20z m852 2 c0 -18 -7 -20 -65 -20 -47 0 -65 4 -65 13 0 23 11 27 72 27 51 0 58 -2 58 -20z m868 -2 c3 -16 -5 -18 -67 -18 -65 0 -71 2 -71 20 0 19 5 21 67 18 55 -2 68 -6 71 -20z m862 2 c0 -18 -7 -20 -70 -20 -63 0 -70 2 -70 20 0 18 7 20 70 20 63 0 70 -2 70 -20z m868 -2 c3 -16 -6 -18 -72 -18 -70 0 -76 2 -76 20 0 19 5 21 72 18 60 -2 73 -6 76 -20z m862 2 c0 -18 -7 -20 -70 -20 -63 0 -70 2 -70 20 0 18 7 20 70 20 63 0 70 -2 70 -20z m848 -2 c3 -16 -5 -18 -62 -18 -48 0 -66 4 -66 13 0 23 13 28 70 25 43 -2 56 -7 58 -20z m-7598 2 c0 -5 -4 -10 -10 -10 -5 0 -10 5 -10 10 0 6 5 10 10 10 6 0 10 -4 10 -10z"/>
  </g>
</svg>